<svg width="25" height="25" viewBox="0 0 25 25" fill="none" xmlns="http://www.w3.org/2000/svg">
<path d="M10.9375 0C9.2799 0 7.69018 0.619715 6.51808 1.72281C5.34598 2.82591 4.6875 4.32204 4.6875 5.88206C4.6875 7.44208 5.34598 8.9382 6.51808 10.0413C7.69018 11.1444 9.2799 11.7641 10.9375 11.7641C12.5951 11.7641 14.1848 11.1444 15.3569 10.0413C16.529 8.9382 17.1875 7.44208 17.1875 5.88206C17.1875 4.32204 16.529 2.82591 15.3569 1.72281C14.1848 0.619715 12.5951 0 10.9375 0ZM3.13906 13.2346C2.72756 13.2331 2.31977 13.308 1.9391 13.4551C1.55843 13.6022 1.21235 13.8185 0.920717 14.0918C0.629084 14.365 0.397632 14.6897 0.239635 15.0473C0.0816373 15.4049 0.000202362 15.7884 0 16.1757C0 18.6623 1.30156 20.5372 3.33594 21.7592C5.02031 22.7694 7.19844 23.3327 9.57031 23.4856L10.1406 21.7239C9.63449 20.6741 9.37341 19.5343 9.375 18.3814C9.375 16.4256 10.1125 14.6316 11.3391 13.2346H3.13906ZM25 18.3814C25.0002 19.5332 24.681 20.6652 24.0739 21.6653C23.4668 22.6654 22.5928 23.499 21.5384 24.0838C20.484 24.6685 19.2857 24.9841 18.062 24.9994C16.8382 25.0147 15.6314 24.7291 14.5609 24.1708L11.7641 24.9708C11.6534 25.0018 11.5359 25.0041 11.4239 24.9775C11.312 24.9508 11.2098 24.8962 11.1282 24.8193C11.0465 24.7425 10.9884 24.6463 10.9601 24.5409C10.9318 24.4356 10.9342 24.325 10.9672 24.2208L11.8172 21.5901C11.2975 20.7066 10.9996 19.7229 10.9462 18.7143C10.8928 17.7058 11.0854 16.6991 11.5093 15.7714C11.9331 14.8436 12.5769 14.0195 13.3914 13.3621C14.2059 12.7047 15.1694 12.2315 16.2082 11.9786C17.247 11.7258 18.3336 11.7001 19.3846 11.9034C20.4356 12.1067 21.4232 12.5338 22.2718 13.1518C23.1204 13.7698 23.8075 14.5624 24.2803 15.4688C24.7532 16.3753 24.9994 17.3716 25 18.3814ZM14.8438 16.1757C14.6365 16.1757 14.4378 16.2531 14.2913 16.391C14.1448 16.5289 14.0625 16.7159 14.0625 16.9109C14.0625 17.1059 14.1448 17.2929 14.2913 17.4308C14.4378 17.5687 14.6365 17.6462 14.8438 17.6462H21.0938C21.301 17.6462 21.4997 17.5687 21.6462 17.4308C21.7927 17.2929 21.875 17.1059 21.875 16.9109C21.875 16.7159 21.7927 16.5289 21.6462 16.391C21.4997 16.2531 21.301 16.1757 21.0938 16.1757H14.8438ZM14.0625 19.8519C14.0625 20.0469 14.1448 20.234 14.2913 20.3718C14.4378 20.5097 14.6365 20.5872 14.8438 20.5872H17.9688C18.176 20.5872 18.3747 20.5097 18.5212 20.3718C18.6677 20.234 18.75 20.0469 18.75 19.8519C18.75 19.6569 18.6677 19.4699 18.5212 19.332C18.3747 19.1941 18.176 19.1167 17.9688 19.1167H14.8438C14.6365 19.1167 14.4378 19.1941 14.2913 19.332C14.1448 19.4699 14.0625 19.6569 14.0625 19.8519Z" fill="black"/>
</svg>
