<svg width="68" height="69" viewBox="0 0 68 69" fill="none" xmlns="http://www.w3.org/2000/svg">
<g filter="url(#filter0_d_246_272)">
<path d="M61.629 1.61716C63.344 3.37326 63.3493 6.2256 61.6409 7.98806L12.146 59.0473C10.4376 60.8098 7.66233 60.8149 5.94734 59.0589C4.23235 57.3028 4.22705 54.4504 5.9355 52.688L55.4304 1.62868C57.1388 -0.133774 59.9141 -0.138931 61.629 1.61716Z" fill="#26A69A"/>
<path d="M61.7356 58.9552C60.0271 60.7177 57.2519 60.7228 55.5369 58.9667L5.85266 8.09169C4.13767 6.3356 4.13237 3.48325 5.84083 1.7208C7.54928 -0.0416575 10.3245 -0.0468128 12.0395 1.70928L61.7237 52.5843C63.4387 54.3404 63.444 57.1928 61.7356 58.9552Z" fill="#26A69A"/>
</g>
<defs>
<filter id="filter0_d_246_272" x="0.562927" y="0.303467" width="66.4505" height="68.0691" filterUnits="userSpaceOnUse" color-interpolation-filters="sRGB">
<feFlood flood-opacity="0" result="BackgroundImageFix"/>
<feColorMatrix in="SourceAlpha" type="matrix" values="0 0 0 0 0 0 0 0 0 0 0 0 0 0 0 0 0 0 127 0" result="hardAlpha"/>
<feOffset dy="4"/>
<feGaussianBlur stdDeviation="2"/>
<feComposite in2="hardAlpha" operator="out"/>
<feColorMatrix type="matrix" values="0 0 0 0 0 0 0 0 0 0 0 0 0 0 0 0 0 0 0.25 0"/>
<feBlend mode="normal" in2="BackgroundImageFix" result="effect1_dropShadow_246_272"/>
<feBlend mode="normal" in="SourceGraphic" in2="effect1_dropShadow_246_272" result="shape"/>
</filter>
</defs>
</svg>
